<svg class="icon" style="width: 22em;height: 22em;vertical-align: middle;fill: currentColor;overflow: hidden;" viewBox="0 0 1024 1024" version="1.1" xmlns="http://www.w3.org/2000/svg"><path d="M617.8816 880.2304H326.0416V77.824h291.84c80.4864 0 145.8176 65.3312 145.8176 145.8176v510.7712c0 80.4864-65.3312 145.8176-145.8176 145.8176z m-14.5408-663.9616c0-28.2624-22.9376-50.9952-50.9952-50.9952s-50.9952 22.9376-50.9952 50.9952v72.9088c0 28.2624 22.9376 50.9952 50.9952 50.9952s50.9952-22.9376 50.9952-50.9952v-72.9088z m-569.1392 518.144V223.6416C34.2016 143.1552 99.5328 77.824 180.224 77.824h72.9088v802.4064H180.224c-80.6912 0-146.0224-65.3312-146.0224-145.8176z" fill="#249EC1" /><path d="M501.1456 245.5552v-29.0816c0-28.2624 22.9376-50.9952 50.9952-50.9952 28.2624 0 50.9952 22.9376 50.9952 50.9952v29.0816h160.5632v-21.9136c0-80.4864-65.3312-145.8176-145.8176-145.8176H326.0416v167.7312h175.104zM253.1328 245.5552V77.824H180.224c-80.4864 0-145.8176 65.3312-145.8176 145.8176v21.9136h218.7264z" fill="#72D3B4" opacity=".2" /><path d="M763.6992 362.2912v-138.6496c0-80.4864-65.3312-145.8176-145.8176-145.8176H326.0416v284.4672h437.6576z m-262.5536-146.0224c0-28.2624 22.9376-50.9952 50.9952-50.9952 28.2624 0 50.9952 22.9376 50.9952 50.9952v72.9088c0 28.2624-22.9376 50.9952-50.9952 50.9952-28.2624 0-50.9952-22.9376-50.9952-50.9952v-72.9088zM253.1328 362.2912V77.824H180.224c-80.4864 0-145.8176 65.3312-145.8176 145.8176v138.6496h218.7264z" fill="#72D3B4" opacity=".2" /><path d="M763.6992 435.2V223.6416c0-80.4864-65.3312-145.8176-145.8176-145.8176H326.0416v357.5808h437.6576zM501.1456 216.2688c0-28.2624 22.9376-50.9952 50.9952-50.9952 28.2624 0 50.9952 22.9376 50.9952 50.9952v72.9088c0 28.2624-22.9376 50.9952-50.9952 50.9952-28.2624 0-50.9952-22.9376-50.9952-50.9952v-72.9088zM253.1328 435.2V77.824H180.224c-80.4864 0-145.8176 65.3312-145.8176 145.8176v211.5584h218.7264z" fill="#72D3B4" opacity=".2" /><path d="M763.6992 581.0176V223.6416c0-80.4864-65.3312-145.8176-145.8176-145.8176H326.0416v503.3984h437.6576zM501.1456 216.2688c0-28.2624 22.9376-50.9952 50.9952-50.9952 28.2624 0 50.9952 22.9376 50.9952 50.9952v72.9088c0 28.2624-22.9376 50.9952-50.9952 50.9952-28.2624 0-50.9952-22.9376-50.9952-50.9952v-72.9088zM253.1328 581.0176V77.824H180.224c-80.4864 0-145.8176 65.3312-145.8176 145.8176v357.376h218.7264z" fill="#72D3B4" opacity=".2" /><path d="M763.4944 741.5808c0.2048-2.4576 0.4096-4.9152 0.4096-7.3728V223.6416c0-80.4864-65.3312-145.8176-145.8176-145.8176H326.0416v663.9616h437.4528zM501.1456 216.2688c0-28.2624 22.9376-50.9952 50.9952-50.9952 28.2624 0 50.9952 22.9376 50.9952 50.9952v72.9088c0 28.2624-22.9376 50.9952-50.9952 50.9952-28.2624 0-50.9952-22.9376-50.9952-50.9952v-72.9088zM253.1328 741.5808V77.824H180.224c-80.4864 0-145.8176 65.3312-145.8176 145.8176v510.7712c0 2.4576 0.2048 4.9152 0.4096 7.3728h218.3168z" fill="#72D3B4" opacity=".2" /><path d="M807.5264 572.6208c100.7616 0 182.4768 29.4912 182.4768 65.7408 0 36.2496-81.7152 65.7408-182.4768 65.7408-100.7616 0-182.4768-29.4912-182.4768-65.7408 0.2048-36.4544 81.7152-65.7408 182.4768-65.7408z" fill="#F8C846" /><path d="M989.184 714.9568c-8.3968 40.96-86.4256 72.9088-181.4528 72.9088-95.232 0-173.2608-32.1536-181.4528-72.9088h-0.8192v-94.8224c0 44.2368 81.7152 80.2816 182.4768 80.2816 100.7616 0 182.4768-35.84 182.4768-80.2816v94.8224h-1.2288z m-363.1104-102.1952c-0.4096 2.4576-0.8192 4.9152-0.8192 7.3728v-7.3728h0.8192z m363.9296 0v7.3728c0-2.4576-0.4096-4.9152-0.8192-7.3728h0.8192z" fill="#EC7F37" /><path d="M989.184 612.7616c0.4096 2.4576 0.8192 4.9152 0.8192 7.3728v-7.3728h-0.8192zM969.9328 656.5888h20.0704v-36.4544c0 13.1072-7.3728 25.3952-20.0704 36.4544zM645.3248 656.5888c-12.6976-10.8544-20.0704-23.3472-20.0704-36.4544v36.4544h20.0704zM625.2544 612.7616v7.3728c0-2.4576 0.4096-4.9152 0.8192-7.3728h-0.8192z" fill="#F8C846" opacity=".2" /><path d="M912.1792 685.6704h77.824v-65.7408c0 27.2384-30.72 51.2-77.824 65.7408z" fill="#F8C846" opacity=".2" /><path d="M989.184 612.7616c0.4096 2.4576 0.8192 4.9152 0.8192 7.3728v-7.3728h-0.8192zM625.2544 612.7616v7.3728c0-2.4576 0.4096-4.9152 0.8192-7.3728h-0.8192z" fill="#F8C846" opacity=".2" /><path d="M702.8736 685.6704c-46.8992-14.5408-77.824-38.5024-77.824-65.7408v65.7408h77.824z" fill="#F8C846" opacity=".2" /><path d="M989.184 612.7616c0.4096 2.4576 0.8192 4.9152 0.8192 7.3728v-7.3728h-0.8192zM625.2544 612.7616v7.3728c0-2.4576 0.4096-4.9152 0.8192-7.3728h-0.8192z" fill="#F8C846" opacity=".2" /><path d="M990.0032 619.9296c0 44.2368-81.7152 80.2816-182.4768 80.2816h182.4768v-80.2816z" fill="#F8C846" opacity=".2" /><path d="M807.5264 700.2112c-100.7616 0-182.4768-35.84-182.4768-80.2816v80.2816h182.4768z" fill="#F8C846" opacity=".2" /><path d="M632.2176 729.4976H983.04c3.072-4.7104 5.12-9.6256 6.144-14.5408h0.8192v-94.8224c0 44.2368-81.7152 80.2816-182.4768 80.2816-100.7616 0-182.4768-35.84-182.4768-80.2816v94.8224h0.8192c1.2288 4.9152 3.2768 9.8304 6.3488 14.5408z" fill="#F8C846" opacity=".2" /><path d="M625.2544 612.7616v7.3728c0-2.4576 0.4096-4.9152 0.8192-7.3728h-0.8192zM989.184 612.7616c0.4096 2.4576 0.8192 4.9152 0.8192 7.3728v-7.3728h-0.8192z" fill="#F8C846" opacity=".2" /><path d="M989.184 612.7616c0.4096 2.4576 0.8192 4.9152 0.8192 7.3728v-7.3728h-0.8192zM625.2544 612.7616v7.3728c0-2.4576 0.4096-4.9152 0.8192-7.3728h-0.8192z" fill="#F8C846" opacity=".2" /><path d="M667.2384 758.5792h280.7808c22.7328-12.0832 37.6832-27.2384 41.1648-43.8272h0.8192v-94.8224c0 44.2368-81.7152 80.2816-182.4768 80.2816-100.7616 0-182.4768-35.84-182.4768-80.2816V714.752h0.8192c3.4816 16.5888 18.432 31.744 41.3696 43.8272z" fill="#F8C846" opacity=".2" /><path d="M989.184 799.9488c-8.3968 40.96-86.4256 72.9088-181.4528 72.9088-95.232 0-173.2608-32.1536-181.4528-72.9088h-0.8192v-94.8224c0 44.2368 81.7152 80.2816 182.4768 80.2816 100.7616 0 182.4768-35.84 182.4768-80.2816v94.8224h-1.2288z m-363.1104-102.1952c-0.4096 2.4576-0.8192 4.9152-0.8192 7.3728v-7.3728h0.8192z m363.9296 0v7.3728c0-2.4576-0.4096-4.9152-0.8192-7.3728h0.8192z" fill="#EC7F37" /><path d="M989.184 697.7536c0.4096 2.4576 0.8192 4.9152 0.8192 7.3728v-7.3728h-0.8192zM969.9328 741.5808h20.0704v-36.4544c0 13.1072-7.3728 25.6-20.0704 36.4544zM645.3248 741.5808c-12.6976-10.8544-20.0704-23.3472-20.0704-36.4544v36.4544h20.0704zM625.2544 697.7536v7.3728c0-2.4576 0.4096-4.9152 0.8192-7.3728h-0.8192z" fill="#F8C846" opacity=".2" /><path d="M912.1792 770.8672h77.824v-65.7408c0 27.2384-30.72 51.2-77.824 65.7408z" fill="#F8C846" opacity=".2" /><path d="M989.184 697.7536c0.4096 2.4576 0.8192 4.9152 0.8192 7.3728v-7.3728h-0.8192zM625.2544 697.7536v7.3728c0-2.4576 0.4096-4.9152 0.8192-7.3728h-0.8192zM702.8736 770.8672c-46.8992-14.5408-77.824-38.5024-77.824-65.7408v65.7408h77.824z" fill="#F8C846" opacity=".2" /><path d="M989.184 697.7536c0.4096 2.4576 0.8192 4.9152 0.8192 7.3728v-7.3728h-0.8192zM625.2544 697.7536v7.3728c0-2.4576 0.4096-4.9152 0.8192-7.3728h-0.8192zM990.0032 705.1264c0 44.2368-81.7152 80.2816-182.4768 80.2816h182.4768v-80.2816z" fill="#F8C846" opacity=".2" /><path d="M807.5264 785.408c-100.7616 0-182.4768-35.84-182.4768-80.2816v80.2816h182.4768z" fill="#F8C846" opacity=".2" /><path d="M632.2176 814.4896H983.04c3.072-4.7104 5.12-9.6256 6.144-14.5408h0.8192v-94.8224c0 44.2368-81.7152 80.2816-182.4768 80.2816-100.7616 0-182.4768-35.84-182.4768-80.2816v94.8224h0.8192c1.2288 5.12 3.2768 9.8304 6.3488 14.5408z" fill="#F8C846" opacity=".2" /><path d="M625.2544 697.7536v7.3728c0-2.4576 0.4096-4.9152 0.8192-7.3728h-0.8192zM989.184 697.7536c0.4096 2.4576 0.8192 4.9152 0.8192 7.3728v-7.3728h-0.8192z" fill="#F8C846" opacity=".2" /><path d="M989.184 697.7536c0.4096 2.4576 0.8192 4.9152 0.8192 7.3728v-7.3728h-0.8192zM625.2544 697.7536v7.3728c0-2.4576 0.4096-4.9152 0.8192-7.3728h-0.8192zM667.2384 843.776h280.7808c22.7328-12.0832 37.6832-27.2384 41.1648-43.8272h0.8192v-94.8224c0 44.2368-81.7152 80.2816-182.4768 80.2816-100.7616 0-182.4768-35.84-182.4768-80.2816v94.8224h0.8192c3.4816 16.5888 18.432 31.744 41.3696 43.8272z" fill="#F8C846" opacity=".2" /><path d="M989.184 887.6032c-8.3968 40.96-86.4256 72.9088-181.4528 72.9088-95.232 0-173.2608-32.1536-181.4528-72.9088h-0.8192v-94.8224c0 44.2368 81.7152 80.2816 182.4768 80.2816 100.7616 0 182.4768-35.84 182.4768-80.2816v94.8224h-1.2288z m-363.1104-102.1952c-0.4096 2.4576-0.8192 4.9152-0.8192 7.3728v-7.3728h0.8192z m363.9296 0v7.3728c0-2.4576-0.4096-4.9152-0.8192-7.3728h0.8192z" fill="#EC7F37" /><path d="M989.184 785.408c0.4096 2.4576 0.8192 4.9152 0.8192 7.3728v-7.3728h-0.8192zM969.9328 829.2352h20.0704v-36.4544c0 13.1072-7.3728 25.3952-20.0704 36.4544zM645.3248 829.2352c-12.6976-10.8544-20.0704-23.3472-20.0704-36.4544v36.4544h20.0704z" fill="#F8C846" opacity=".2" /><path d="M625.2544 785.408v7.3728c0-2.4576 0.4096-4.9152 0.8192-7.3728h-0.8192z" fill="#F8C846" opacity=".2" /><path d="M912.1792 858.3168h77.824V792.576c0 27.2384-30.72 51.2-77.824 65.7408z" fill="#F8C846" opacity=".2" /><path d="M989.184 785.408c0.4096 2.4576 0.8192 4.9152 0.8192 7.3728v-7.3728h-0.8192zM625.2544 785.408v7.3728c0-2.4576 0.4096-4.9152 0.8192-7.3728h-0.8192z" fill="#F8C846" opacity=".2" /><path d="M702.8736 858.3168c-46.8992-14.5408-77.824-38.5024-77.824-65.7408v65.7408h77.824z" fill="#F8C846" opacity=".2" /><path d="M989.184 785.408c0.4096 2.4576 0.8192 4.9152 0.8192 7.3728v-7.3728h-0.8192zM625.2544 785.408v7.3728c0-2.4576 0.4096-4.9152 0.8192-7.3728h-0.8192zM990.0032 792.7808c0 44.2368-81.7152 80.2816-182.4768 80.2816h182.4768v-80.2816z" fill="#F8C846" opacity=".2" /><path d="M807.5264 872.8576c-100.7616 0-182.4768-35.84-182.4768-80.2816v80.2816h182.4768z" fill="#F8C846" opacity=".2" /><path d="M632.2176 902.144H983.04c3.072-4.7104 5.12-9.6256 6.144-14.5408h0.8192v-94.8224c0 44.2368-81.7152 80.2816-182.4768 80.2816-100.7616 0-182.4768-35.84-182.4768-80.2816v94.8224h0.8192c1.2288 4.9152 3.2768 9.8304 6.3488 14.5408z" fill="#F8C846" opacity=".2" /><path d="M625.2544 785.408v7.3728c0-2.4576 0.4096-4.9152 0.8192-7.3728h-0.8192zM989.184 785.408c0.4096 2.4576 0.8192 4.9152 0.8192 7.3728v-7.3728h-0.8192z" fill="#F8C846" opacity=".2" /><path d="M989.184 785.408c0.4096 2.4576 0.8192 4.9152 0.8192 7.3728v-7.3728h-0.8192zM625.2544 785.408v7.3728c0-2.4576 0.4096-4.9152 0.8192-7.3728h-0.8192z" fill="#F8C846" opacity=".2" /><path d="M667.2384 931.2256h280.7808c22.7328-12.0832 37.6832-27.2384 41.1648-43.8272h0.8192V792.576c0 44.2368-81.7152 80.2816-182.4768 80.2816-100.7616 0-182.4768-35.84-182.4768-80.2816v94.8224h0.8192c3.4816 16.7936 18.432 31.744 41.3696 43.8272z" fill="#F8C846" opacity=".2" /><path d="M696.9344 586.1376c-43.6224 12.0832-71.68 30.9248-71.68 52.0192 0 21.2992 28.2624 40.1408 71.68 52.0192v-104.0384z" fill="#F2E39B" opacity=".2" /><path d="M750.3872 575.8976c-72.704 8.6016-125.3376 33.1776-125.3376 62.2592s52.4288 53.6576 125.3376 62.2592v-124.5184z" fill="#F2E39B" opacity=".2" /><path d="M788.0704 573.0304c-91.5456 3.4816-163.0208 31.3344-163.0208 65.3312 0 33.9968 71.2704 61.8496 163.0208 65.3312v-130.6624z" fill="#F2E39B" opacity=".2" /><path d="M862.208 575.6928c-17.2032-2.048-35.6352-3.072-54.6816-3.072-100.7616 0-182.4768 29.4912-182.4768 65.7408 0 36.2496 81.7152 65.7408 182.4768 65.7408 19.0464 0 37.4784-1.024 54.6816-3.072v-125.3376z" fill="#F2E39B" opacity=".2" /><path d="M899.8912 581.632c-27.0336-5.7344-58.5728-9.216-92.3648-9.216-100.7616 0-182.4768 29.4912-182.4768 65.7408 0 36.2496 81.7152 65.7408 182.4768 65.7408 33.792 0 65.3312-3.2768 92.3648-9.216V581.632z" fill="#F2E39B" opacity=".2" /></svg>